<svg xmlns="http://www.w3.org/2000/svg" xmlns:xlink="http://www.w3.org/1999/xlink" x="0px" y="0px" viewBox="0 0 100 100" style="enable-background:new 0 0 100 100;" xml:space="preserve">
<style type="text/css">
	.st0{fill:#EDEDED;}
	.st1{fill-rule:evenodd;clip-rule:evenodd;fill:#D61F26;}
</style>
<g id="Layer_1">
	<path class="st0" d="M95.4,98.7h-91c-1.7,0-3-1.3-3-3v-91c0-1.7,1.3-3,3-3h91c1.7,0,3,1.3,3,3v91C98.4,97.3,97.1,98.7,95.4,98.7z"></path>
</g>
<g id="Layer_2">
	<g>
		<polygon class="st1" points="14,58.8 17.9,58.1 17.9,61.5 9.6,63 9.6,39.5 14,38.7   "></polygon>
		<path class="st1" d="M27.3,36.2l-5.9,1.1l-3.3,24.2l4-0.7l0.7-6.5l2.1-0.4l0.5,6.3l4.6-0.8L27.3,36.2z M23.2,50.8l0.7-9.8l0.1,0    l0.6,9.6L23.2,50.8z"></path>
		<path class="st1" d="M40.9,40.4v-1.8c0-3.6-2.5-4.3-5.2-3.8l-5.2,0.9v23.6l5.2-0.9c3.4-0.6,5.2-2.2,5.2-6.2V50    c0-3.8-1-4.7-3.3-4.5v-0.1C40.4,44.3,40.9,42.6,40.9,40.4z M36.5,53.7c0,0.9-0.3,1.2-1,1.3l-0.5,0.1v-7.5l0.5-0.1    c0.7-0.1,1,0,1,0.9V53.7z M36.5,42.9c0,1.1-0.3,1.5-1,1.7l-0.5,0.1v-6.4l0.5-0.1c0.7-0.1,1,0.2,1,1.3V42.9z"></path>
		<path class="st1" d="M62.2,30L56.3,31L53,54.7c-0.2-0.8-0.5-1.7-0.5-3.6v-4.7c0-2.7-0.6-3.7-3.4-3.4V43c2.7-0.6,3.4-2.7,3.4-4.5    v-2.1c0-3.6-2.5-4.3-5.2-3.8l-5.2,0.9v23.6l4.4-0.8v-11c1.6-0.3,1.6,0.9,1.6,2.3V53c0,1.6,0.3,2.3,0.6,2.9l4.5-0.8c0,0,0,0,0,0    l3.8-0.7l0.7-6.5l2.1-0.4l0.5,6.3l4.6-0.8L62.2,30z M48.1,40.8c0,1.1-0.3,1.5-1,1.7l-0.5,0.1v-6.5l0.5-0.1c0.7-0.1,1,0.2,1,1.3    V40.8z M58,44.5l0.7-9.8l0.1,0l0.6,9.6L58,44.5z"></path>
		<path class="st1" d="M70.5,28.5l-5.2,0.9V53l5.2-0.9c2.7-0.5,5.2-2.1,5.2-5.2v-15C75.7,28.7,73.2,28,70.5,28.5z M71.3,47    c0,0.7-0.1,1.6-0.8,1.7l-0.8,0.1V32l0.8-0.1c0.7-0.1,0.8,0.8,0.8,1.4V47z"></path>
		<path class="st1" d="M85.4,25.8l-5.9,1.1L76.2,51l4-0.7l0.7-6.5l2.1-0.4l0.5,6.3l4.6-0.8L85.4,25.8z M81.2,40.3l0.7-9.8l0.1,0    l0.6,9.6L81.2,40.3z"></path>
		<path class="st1" d="M14,58.8V38.7l-4.4,0.8V63l8.3-1.5v-3.4L14,58.8z M27.3,36.2l-5.9,1.1l-3.3,24.2l4-0.7l0.7-6.5l2.1-0.4    l0.5,6.3l4.6-0.8L27.3,36.2z M23.2,50.8l0.7-9.8l0.1,0l0.6,9.6L23.2,50.8z M40.9,40.4v-1.8c0-3.6-2.5-4.3-5.2-3.8l-5.2,0.9v23.6    l5.2-0.9c3.4-0.6,5.2-2.2,5.2-6.2V50c0-3.8-1-4.7-3.3-4.5v-0.1C40.4,44.3,40.9,42.6,40.9,40.4z M36.5,53.7c0,0.9-0.3,1.2-1,1.3    l-0.5,0.1v-7.5l0.5-0.1c0.7-0.1,1,0,1,0.9V53.7z M36.5,42.9c0,1.1-0.3,1.5-1,1.7l-0.5,0.1v-6.4l0.5-0.1c0.7-0.1,1,0.2,1,1.3V42.9z     M53.2,55.2c0-0.1-0.1-0.3-0.1-0.4c-0.2-0.8-0.5-1.7-0.5-3.6v-4.7c0-2.7-0.6-3.7-3.4-3.4V43c2.7-0.6,3.4-2.7,3.4-4.5v-2.1    c0-3.6-2.5-4.3-5.2-3.8l-5.2,0.9v23.6l4.4-0.8v-11c1.6-0.3,1.6,0.9,1.6,2.3V53c0,1.6,0.3,2.3,0.6,2.9L53.2,55.2    C53.2,55.2,53.2,55.2,53.2,55.2z M48.1,40.8c0,1.1-0.3,1.5-1,1.7l-0.5,0.1v-6.5l0.5-0.1c0.7-0.1,1,0.2,1,1.3V40.8z"></path>
		<path class="st1" d="M62.2,30L56.3,31L53,54.7L53,55.2l0.2,0l3.8-0.7l0.7-6.5l2.1-0.4l0.5,6.3l4.6-0.8L62.2,30z M58,44.5l0.7-9.8    l0.1,0l0.6,9.6L58,44.5z M70.5,28.5l-5.2,0.9V53l5.2-0.9c2.7-0.5,5.2-2.1,5.2-5.2v-15C75.7,28.7,73.2,28,70.5,28.5z M71.3,47    c0,0.7-0.1,1.6-0.8,1.7l-0.8,0.1V32l0.8-0.1c0.7-0.1,0.8,0.8,0.8,1.4V47z M85.4,25.8l-5.9,1.1L76.2,51l4-0.7l0.7-6.5l2.1-0.4    l0.5,6.3l4.6-0.8L85.4,25.8z M81.2,40.3l0.7-9.8l0.1,0l0.6,9.6L81.2,40.3z"></path>
		<path class="st1" d="M6,76.2L6.2,70l1.7-0.3c0.4-0.1,0.9-0.1,1.2,0.2c0.2,0.3,0.3,0.6,0.2,1.1c0,0.5-0.1,1.1-0.7,1.4l0,0    c0.6,0,0.8,0.5,0.8,1.3c0,0.3,0,0.5-0.1,0.8c-0.2,0.8-0.7,1.2-1.4,1.4L6,76.2L6,76.2z M7.3,75.1C7.5,75,7.8,75,8,74.9    c0.3-0.2,0.3-0.6,0.3-0.9c0-0.7-0.1-0.9-0.7-0.8l-0.4,0.1l0,1.9L7.3,75.1L7.3,75.1z M7.4,72.3c0.3,0,0.6-0.1,0.8-0.4    c0.1-0.2,0.1-0.4,0.1-0.7c0-0.5-0.1-0.7-0.5-0.6l-0.5,0.1l0,1.6L7.4,72.3L7.4,72.3z M10.2,71.9c0.1-1.6,0.2-2.8,1.9-3.1    c1.7-0.3,1.8,0.9,1.8,2.4l0,0.9c0,1.7-0.2,2.9-1.9,3.2c-1.7,0.3-1.8-0.9-1.8-2.5L10.2,71.9z M11.3,73.1c0,0.5,0,1.3,0.7,1.2    c0.7-0.1,0.8-1,0.8-1.6l0-1.6c0-0.5,0.1-1.6-0.7-1.5c-0.8,0.1-0.8,1.2-0.8,1.7L11.3,73.1L11.3,73.1z M14.8,74.6l0.2-6.2l2.2-0.4    c0.4-0.1,0.9,0.1,1.1,0.5c0.2,0.4,0.3,1.1,0.3,2.1c0,1.2-0.1,2.6-0.9,3.4c-0.2,0.2-0.5,0.3-0.8,0.3L14.8,74.6L14.8,74.6z     M16.3,73.5c0.9-0.2,1-0.7,1-2.5c0-1.5-0.1-2-0.7-1.9L16,69.1l-0.1,4.4L16.3,73.5L16.3,73.5z M20.7,69c0.1,0.3,0.2,0.6,0.2,0.9    l0,0c0.1-0.5,0.2-0.9,0.4-1.2l0.5-1.5L23,67l-1.6,3.8l-0.1,2.6l-1,0.2l0.1-2.7L19,67.7l1.1-0.2L20.7,69L20.7,69z M23.4,73.1    l0.2-6.2l1.7-0.3c0.4-0.1,0.9-0.1,1.2,0.2c0.2,0.3,0.3,0.6,0.2,1.1c0,0.5-0.1,1.1-0.7,1.4v0c0.6,0,0.8,0.5,0.8,1.3    c0,0.3,0,0.5-0.1,0.8c-0.2,0.8-0.7,1.2-1.4,1.4L23.4,73.1L23.4,73.1z M24.7,71.9c0.2,0,0.4-0.1,0.6-0.2c0.3-0.2,0.3-0.6,0.3-0.9    c0-0.7-0.1-0.9-0.7-0.8l-0.4,0.1l0,1.9L24.7,71.9L24.7,71.9z M24.8,69.1c0.3,0,0.6-0.1,0.8-0.3c0.1-0.2,0.1-0.4,0.1-0.7    c0-0.5-0.1-0.7-0.5-0.6l-0.5,0.1l0,1.6L24.8,69.1L24.8,69.1z M30.3,65.7l1-0.2l-0.1,4.3c0,1.4-0.5,2.1-1.8,2.4    c-1.4,0.2-1.8-0.3-1.7-1.7l0.1-4.3l1-0.2l-0.1,4.2c0,0.6,0,1.2,0.7,1.1c0.7-0.1,0.7-0.7,0.7-1.3L30.3,65.7L30.3,65.7z M32.2,71.5    l0.2-6.2l1-0.2l-0.2,6.2L32.2,71.5L32.2,71.5z M34.2,71.1l0.2-6.2l1-0.2L35.3,70l1.9-0.3l0,0.9L34.2,71.1z M38,70.5l0.2-6.2    l2.2-0.4c0.3,0,0.8,0,1.1,0.5c0.2,0.4,0.3,1.1,0.3,2.1c0,1.2-0.1,2.6-0.9,3.4c-0.2,0.2-0.5,0.3-0.8,0.3L38,70.5L38,70.5z     M39.5,69.3c0.9-0.2,1-0.7,1-2.5c0-1.5-0.1-2-0.7-1.9L39.2,65L39,69.4L39.5,69.3L39.5,69.3z M42.5,69.6l0.2-6.2l1-0.2l-0.2,6.2    L42.5,69.6z M47.2,62.6l1-0.2l-0.2,6.2L47,68.8l-0.8-2.1c-0.3-0.7-0.5-1.4-0.7-2.3l0,0c0,0.5,0.1,1.1,0.1,1.8c0,0.6,0,1.2,0,1.7    l0,1.2l-1,0.2l0.2-6.2l1.1-0.2l0.8,2.1c0.3,0.7,0.5,1.4,0.7,2.3l0,0c0-0.6,0-1.2-0.1-1.7c0-0.6,0-1.2,0-1.7L47.2,62.6z M49.1,64.9    c0.1-1.6,0.2-2.8,1.9-3.1c0.9-0.2,1.5,0,1.7,1c0,0.2,0,0.5,0,0.7l-1,0.2c0-0.6,0-1.1-0.7-1c-0.8,0.1-0.8,1.2-0.8,1.7l0,1.7    c0,0.5,0,1.3,0.7,1.2c0.6-0.1,0.8-0.8,0.8-1.8L51,65.7l0-0.9l1.7-0.3l-0.1,3.3L51.9,68l0-0.7l0,0c-0.2,0.7-0.6,0.9-1,1    c-1.7,0.3-1.8-0.9-1.8-2.5L49.1,64.9L49.1,64.9z M58.2,60.6l1-0.2l-0.2,6.2L58,66.8l-0.8-2.1c-0.3-0.7-0.5-1.4-0.7-2.3l0,0    c0,0.5,0.1,1.1,0.1,1.8c0,0.6,0,1.2,0,1.7l0,1.2l-1,0.2l0.2-6.2l1.1-0.2l0.8,2.1c0.2,0.7,0.5,1.4,0.7,2.3l0,0c0-0.6,0-1.2-0.1-1.8    c0-0.6,0-1.2,0-1.7L58.2,60.6z M62.8,59.8l1-0.2l-0.1,4.3c0,1.4-0.5,2.1-1.8,2.4c-1.4,0.2-1.8-0.3-1.7-1.7l0.1-4.3l1-0.2l-0.1,4.2    c0,0.6,0,1.2,0.7,1.1c0.7-0.1,0.7-0.7,0.7-1.3L62.8,59.8L62.8,59.8z M64.4,59.5l3.5-0.6l0,0.9L66.7,60l-0.1,5.3l-1,0.2l0.1-5.3    l-1.2,0.2L64.4,59.5z M69.5,62.1l-0.1,2.7l-1,0.2l0.2-6.2l2-0.4c0.9-0.2,1.6,0.1,1.6,1.2c0,0.7-0.2,1.4-0.9,1.7v0    c0.6,0,0.8,0.4,0.8,1c0,0.3-0.1,1.8,0.2,1.9l0,0.1L71,64.5c-0.1-0.4-0.1-1.1-0.1-1.6c0-0.4,0-0.9-0.3-1c-0.3,0-0.6,0-0.9,0.1    L69.5,62.1L69.5,62.1z M69.5,61.2l0.8-0.1c0.3-0.1,0.6-0.4,0.6-1c0-0.7-0.2-0.8-0.6-0.7l-0.8,0.1L69.5,61.2L69.5,61.2z M73.1,57.9    l-0.2,6.2l1-0.2l0.2-6.2L73.1,57.9z M74.8,57.6l0,0.9l1.2-0.2l-0.1,5.3l1-0.2l0.1-5.3l1.2-0.2l0-0.9L74.8,57.6z M78.9,56.9    l-0.2,6.2l1-0.2l0.2-6.2L78.9,56.9z M82.7,56c-1.7,0.3-1.8,1.5-1.9,3.1l0,0.9c0,1.7,0,2.9,1.8,2.5c1.7-0.3,1.9-1.5,1.9-3.2l0-0.9    C84.5,56.9,84.4,55.7,82.7,56z M83.4,58.4l0,1.6c0,0.6,0,1.5-0.8,1.6c-0.7,0.1-0.7-0.7-0.7-1.2l0-1.7c0-0.5,0-1.6,0.8-1.7    C83.5,56.8,83.4,57.9,83.4,58.4z M88,55.2l0,1.2c0,0.6,0,1.2,0,1.7c0,0.6,0,1.2,0.1,1.8l0,0c-0.2-1-0.4-1.7-0.7-2.3l-0.8-2.1    l-1.1,0.2l-0.2,6.2l1-0.2l0-1.2c0-0.6,0-1.2,0-1.7c0-0.6,0-1.2-0.1-1.8l0,0c0.2,0.9,0.4,1.7,0.7,2.3l0.8,2.1l1.1-0.2l0.2-6.2    L88,55.2z M93.6,53.7l-0.4,1.4l-0.4-1.3L92.1,54l-0.1,2.2l0.4-0.1l0-1.8l0,0L93,56l0.2,0l0.6-1.9l0,0l0,1.8l0.4-0.1l0.1-2.2    L93.6,53.7z M90.4,54.3l0,0.4l0.6-0.1l0,1.8l0.4-0.1l0-1.8l0.6-0.1l0-0.4L90.4,54.3z"></path>
	</g>
</g>
</svg>